<svg width="96" height="30" viewBox="0 0 96 30" fill="none" xmlns="http://www.w3.org/2000/svg">
<path d="M12.0078 17.5266C12.0078 17.1458 11.9492 16.804 11.832 16.5012C11.7246 16.1887 11.5195 15.9055 11.2168 15.6516C10.9141 15.3879 10.4893 15.1292 9.94238 14.8752C9.39551 14.6213 8.6875 14.3577 7.81836 14.0842C6.85156 13.7717 5.93359 13.4202 5.06445 13.0295C4.20508 12.6389 3.44336 12.1848 2.7793 11.6672C2.125 11.1399 1.60742 10.5295 1.22656 9.83618C0.855469 9.14282 0.669922 8.33716 0.669922 7.41919C0.669922 6.53052 0.865234 5.72485 1.25586 5.0022C1.64648 4.26978 2.19336 3.64478 2.89648 3.1272C3.59961 2.59985 4.42969 2.19458 5.38672 1.91138C6.35352 1.62817 7.41309 1.48657 8.56543 1.48657C10.1377 1.48657 11.5098 1.76978 12.6816 2.33618C13.8535 2.90259 14.7617 3.67896 15.4062 4.66528C16.0605 5.65161 16.3877 6.77954 16.3877 8.04907H12.0225C12.0225 7.42407 11.8906 6.8772 11.627 6.40845C11.373 5.92993 10.9824 5.55396 10.4551 5.28052C9.9375 5.00708 9.2832 4.87036 8.49219 4.87036C7.73047 4.87036 7.0957 4.98755 6.58789 5.22192C6.08008 5.44653 5.69922 5.75415 5.44531 6.14478C5.19141 6.52563 5.06445 6.95532 5.06445 7.43384C5.06445 7.79517 5.15234 8.12231 5.32812 8.41528C5.51367 8.70825 5.78711 8.98169 6.14844 9.2356C6.50977 9.4895 6.9541 9.72876 7.48145 9.95337C8.00879 10.178 8.61914 10.3977 9.3125 10.6125C10.4746 10.9641 11.4951 11.3596 12.374 11.7991C13.2627 12.2385 14.0049 12.7317 14.6006 13.2786C15.1963 13.8254 15.6455 14.4456 15.9482 15.1389C16.251 15.8323 16.4023 16.6184 16.4023 17.4973C16.4023 18.425 16.2217 19.2551 15.8604 19.9875C15.499 20.72 14.9766 21.3401 14.293 21.8479C13.6094 22.3557 12.7939 22.7415 11.8467 23.0051C10.8994 23.2688 9.83984 23.4006 8.66797 23.4006C7.61328 23.4006 6.57324 23.2639 5.54785 22.9905C4.52246 22.7073 3.58984 22.2825 2.75 21.7161C1.91992 21.1497 1.25586 20.427 0.757812 19.5481C0.259766 18.6692 0.0107422 17.6292 0.0107422 16.428H4.41992C4.41992 17.092 4.52246 17.6536 4.72754 18.1125C4.93262 18.5715 5.2207 18.9426 5.5918 19.2258C5.97266 19.509 6.42188 19.7141 6.93945 19.8411C7.4668 19.968 8.04297 20.0315 8.66797 20.0315C9.42969 20.0315 10.0547 19.9241 10.543 19.7092C11.041 19.4944 11.4072 19.1965 11.6416 18.8157C11.8857 18.4348 12.0078 18.0051 12.0078 17.5266ZM23.2432 0.607666V23.1077H19.0244V0.607666H23.2432ZM22.6426 14.6262H21.4854C21.4951 13.5227 21.6416 12.5071 21.9248 11.5793C22.208 10.6418 22.6133 9.8313 23.1406 9.14771C23.668 8.45435 24.2979 7.91724 25.0303 7.53638C25.7725 7.15552 26.5928 6.96509 27.4912 6.96509C28.2725 6.96509 28.9805 7.07739 29.6152 7.302C30.2598 7.51685 30.8115 7.86841 31.2705 8.35669C31.7393 8.83521 32.1006 9.46509 32.3545 10.2463C32.6084 11.0276 32.7354 11.9749 32.7354 13.0881V23.1077H28.4873V13.0588C28.4873 12.3557 28.3848 11.804 28.1797 11.4036C27.9844 10.9934 27.6963 10.7053 27.3154 10.5393C26.9443 10.3635 26.4854 10.2756 25.9385 10.2756C25.333 10.2756 24.8154 10.3879 24.3857 10.6125C23.9658 10.8372 23.6289 11.1497 23.375 11.55C23.1211 11.9407 22.9355 12.3997 22.8184 12.927C22.7012 13.4543 22.6426 14.0208 22.6426 14.6262ZM35.2695 15.344V15.0364C35.2695 13.8743 35.4355 12.8049 35.7676 11.8284C36.0996 10.842 36.583 9.98755 37.2178 9.26489C37.8525 8.54224 38.6338 7.98071 39.5615 7.58032C40.4893 7.17017 41.5537 6.96509 42.7549 6.96509C43.9561 6.96509 45.0254 7.17017 45.9629 7.58032C46.9004 7.98071 47.6865 8.54224 48.3213 9.26489C48.9658 9.98755 49.4541 10.842 49.7861 11.8284C50.1182 12.8049 50.2842 13.8743 50.2842 15.0364V15.344C50.2842 16.4963 50.1182 17.5657 49.7861 18.552C49.4541 19.5286 48.9658 20.3831 48.3213 21.1155C47.6865 21.8381 46.9053 22.3997 45.9775 22.8C45.0498 23.2004 43.9854 23.4006 42.7842 23.4006C41.583 23.4006 40.5137 23.2004 39.5762 22.8C38.6484 22.3997 37.8623 21.8381 37.2178 21.1155C36.583 20.3831 36.0996 19.5286 35.7676 18.552C35.4355 17.5657 35.2695 16.4963 35.2695 15.344ZM39.4883 15.0364V15.344C39.4883 16.0081 39.5469 16.6282 39.6641 17.2043C39.7812 17.7805 39.9668 18.2883 40.2207 18.7278C40.4844 19.1575 40.8262 19.4944 41.2461 19.7385C41.666 19.9827 42.1787 20.1047 42.7842 20.1047C43.3701 20.1047 43.873 19.9827 44.293 19.7385C44.7129 19.4944 45.0498 19.1575 45.3037 18.7278C45.5576 18.2883 45.7432 17.7805 45.8604 17.2043C45.9873 16.6282 46.0508 16.0081 46.0508 15.344V15.0364C46.0508 14.3918 45.9873 13.7864 45.8604 13.22C45.7432 12.6438 45.5527 12.136 45.2891 11.6965C45.0352 11.2473 44.6982 10.8958 44.2783 10.6418C43.8584 10.3879 43.3506 10.261 42.7549 10.261C42.1592 10.261 41.6514 10.3879 41.2314 10.6418C40.8213 10.8958 40.4844 11.2473 40.2207 11.6965C39.9668 12.136 39.7812 12.6438 39.6641 13.22C39.5469 13.7864 39.4883 14.3918 39.4883 15.0364ZM57.0957 10.3049V29.2014H52.877V7.25806H56.7881L57.0957 10.3049ZM67.1299 15.0071V15.3147C67.1299 16.467 66.9932 17.5364 66.7197 18.5227C66.4561 19.509 66.0654 20.3684 65.5479 21.1008C65.0303 21.8235 64.3857 22.3899 63.6143 22.8C62.8525 23.2004 61.9736 23.4006 60.9775 23.4006C60.0107 23.4006 59.1709 23.2053 58.458 22.8147C57.7451 22.4241 57.1445 21.8772 56.6562 21.1741C56.1777 20.4612 55.792 19.636 55.499 18.6985C55.2061 17.761 54.9814 16.7551 54.8252 15.6809V14.8752C54.9814 13.7229 55.2061 12.6682 55.499 11.7112C55.792 10.7444 56.1777 9.90942 56.6562 9.2063C57.1445 8.49341 57.7402 7.94165 58.4434 7.55103C59.1562 7.1604 59.9912 6.96509 60.9482 6.96509C61.9541 6.96509 62.8379 7.15552 63.5996 7.53638C64.3711 7.91724 65.0156 8.46411 65.5332 9.177C66.0605 9.88989 66.4561 10.7395 66.7197 11.7258C66.9932 12.7122 67.1299 13.8059 67.1299 15.0071ZM62.8965 15.3147V15.0071C62.8965 14.3333 62.8379 13.7131 62.7207 13.1467C62.6133 12.5706 62.4375 12.0676 62.1934 11.6379C61.959 11.2083 61.6465 10.8762 61.2559 10.6418C60.875 10.3977 60.4111 10.2756 59.8643 10.2756C59.2881 10.2756 58.7949 10.3684 58.3848 10.554C57.9844 10.7395 57.6572 11.0081 57.4033 11.3596C57.1494 11.7112 56.959 12.1311 56.832 12.6194C56.7051 13.1077 56.627 13.6594 56.5977 14.2747V16.3108C56.6465 17.0334 56.7832 17.6829 57.0078 18.259C57.2324 18.8254 57.5791 19.2747 58.0479 19.6067C58.5166 19.9387 59.1318 20.1047 59.8936 20.1047C60.4502 20.1047 60.9189 19.9827 61.2998 19.7385C61.6807 19.4846 61.9883 19.1379 62.2227 18.6985C62.4668 18.259 62.6377 17.7512 62.7354 17.175C62.8428 16.5989 62.8965 15.9788 62.8965 15.3147ZM74.2051 0.607666V23.1077H69.9717V0.607666H74.2051ZM82.3936 21.3206L86.5977 7.25806H91.124L84.752 25.4954C84.6152 25.8958 84.4297 26.3254 84.1953 26.7844C83.9707 27.2434 83.6631 27.678 83.2725 28.0881C82.8916 28.5081 82.4082 28.8499 81.8223 29.1135C81.2461 29.3772 80.5381 29.509 79.6982 29.509C79.2979 29.509 78.9707 29.4846 78.7168 29.4358C78.4629 29.387 78.1602 29.3186 77.8086 29.2307V26.1399C77.916 26.1399 78.0283 26.1399 78.1455 26.1399C78.2627 26.1497 78.375 26.1545 78.4824 26.1545C79.0391 26.1545 79.4932 26.0911 79.8447 25.9641C80.1963 25.8372 80.4795 25.6418 80.6943 25.3782C80.9092 25.1243 81.0801 24.7922 81.207 24.3821L82.3936 21.3206ZM80.6357 7.25806L84.0781 18.7424L84.6787 23.2102L81.8076 23.5178L76.1094 7.25806H80.6357ZM90.8457 21.0715C90.8457 20.4465 91.0605 19.9241 91.4902 19.5042C91.9297 19.0842 92.5107 18.8743 93.2334 18.8743C93.9561 18.8743 94.5322 19.0842 94.9619 19.5042C95.4014 19.9241 95.6211 20.4465 95.6211 21.0715C95.6211 21.6965 95.4014 22.219 94.9619 22.6389C94.5322 23.0588 93.9561 23.2688 93.2334 23.2688C92.5107 23.2688 91.9297 23.0588 91.4902 22.6389C91.0605 22.219 90.8457 21.6965 90.8457 21.0715Z" fill="white"/>
</svg>
