<svg width="23" height="26" viewBox="0 0 23 26" fill="none" xmlns="http://www.w3.org/2000/svg">
<g clip-path="url(#clip0_53_413)">
<path d="M8.51938 23.2047C9.04216 23.2047 9.46596 22.7325 9.46596 22.1499C9.46596 21.5674 9.04216 21.0952 8.51938 21.0952C7.9966 21.0952 7.5728 21.5674 7.5728 22.1499C7.5728 22.7325 7.9966 23.2047 8.51938 23.2047Z" stroke="#616467" stroke-width="2" stroke-linecap="round" stroke-linejoin="round"/>
<path d="M18.9316 23.2047C19.4544 23.2047 19.8782 22.7325 19.8782 22.1499C19.8782 21.5674 19.4544 21.0952 18.9316 21.0952C18.4088 21.0952 17.985 21.5674 17.985 22.1499C17.985 22.7325 18.4088 23.2047 18.9316 23.2047Z" stroke="#616467" stroke-width="2" stroke-linecap="round" stroke-linejoin="round"/>
<path d="M0.946487 1.05481H4.73281L7.26965 15.1781C7.35621 15.6637 7.59329 16.0999 7.9394 16.4103C8.2855 16.7208 8.71858 16.8857 9.16281 16.8762H18.3636C18.8078 16.8857 19.2409 16.7208 19.587 16.4103C19.9331 16.0999 20.1702 15.6637 20.2567 15.1781L21.7713 6.32862H5.67939" stroke="#616467" stroke-width="2" stroke-linecap="round" stroke-linejoin="round"/>
</g>
<defs>
<clipPath id="clip0_53_413">
<rect width="22.7179" height="25.3143" fill="white"/>
</clipPath>
</defs>
</svg>
