<svg width="24" height="29" viewBox="0 0 24 29" fill="none" xmlns="http://www.w3.org/2000/svg">
<path d="M11.9998 0.578735C14.4852 0.578735 16.511 2.5467 16.6039 5.00938L16.6072 5.18611H22.4165C22.9696 5.18611 23.4181 5.63454 23.4181 6.18771C23.4181 6.70631 23.0239 7.13285 22.5189 7.18414L22.4165 7.18931H21.5423L20.1776 25.2741C20.0435 27.0504 18.5631 28.4233 16.7818 28.4233H7.21785C5.43649 28.4233 3.95612 27.0504 3.82206 25.2741L2.45654 7.18931H1.58315C1.06455 7.18931 0.638006 6.79518 0.586714 6.29012L0.581543 6.18771C0.581543 5.66911 0.975674 5.24257 1.48074 5.19128L1.58315 5.18611H7.39244C7.39244 2.64153 9.45523 0.578735 11.9998 0.578735ZM19.5336 7.18931H4.46607L5.81959 25.1234C5.87479 25.8548 6.48435 26.4201 7.21785 26.4201H16.7818C17.5153 26.4201 18.1248 25.8548 18.18 25.1234L19.5336 7.18931ZM14.604 11.396C15.1226 11.396 15.5491 11.7902 15.6004 12.2952L15.6056 12.3976V21.2117C15.6056 21.7649 15.1571 22.2133 14.604 22.2133C14.0854 22.2133 13.6588 21.8192 13.6075 21.3141L13.6024 21.2117V12.3976C13.6024 11.8445 14.0508 11.396 14.604 11.396ZM9.39565 11.396C9.91424 11.396 10.3408 11.7902 10.3921 12.2952L10.3972 12.3976V21.2117C10.3972 21.7649 9.94881 22.2133 9.39565 22.2133C8.87705 22.2133 8.45051 21.8192 8.39921 21.3141L8.39404 21.2117V12.3976C8.39404 11.8445 8.84247 11.396 9.39565 11.396ZM11.9998 2.58194C10.6112 2.58194 9.47638 3.66884 9.39977 5.03833L9.39565 5.18611H14.604C14.604 3.74786 13.4381 2.58194 11.9998 2.58194Z" fill="#211F1C"/>
</svg>
