<svg width="17" height="17" viewBox="0 0 17 17" fill="none" xmlns="http://www.w3.org/2000/svg">
<g clip-path="url(#clip0_65_1250)">
<path d="M7.62024 3.29996H2.88417C2.52529 3.29996 2.18111 3.43692 1.92734 3.68072C1.67357 3.92452 1.53101 4.25518 1.53101 4.59996V13.7C1.53101 14.0447 1.67357 14.3754 1.92734 14.6192C2.18111 14.863 2.52529 15 2.88417 15H12.3563C12.7152 15 13.0594 14.863 13.3131 14.6192C13.5669 14.3754 13.7095 14.0447 13.7095 13.7V9.14996" stroke="#393D45" stroke-width="2" stroke-linecap="round" stroke-linejoin="round"/>
<path d="M12.6949 2.32494C12.9641 2.06635 13.3291 1.92108 13.7098 1.92108C14.0905 1.92108 14.4555 2.06635 14.7247 2.32494C14.9938 2.58353 15.145 2.93424 15.145 3.29994C15.145 3.66564 14.9938 4.01635 14.7247 4.27494L8.29715 10.4499L5.59082 11.0999L6.2674 8.49994L12.6949 2.32494Z" stroke="#393D45" stroke-width="2" stroke-linecap="round" stroke-linejoin="round"/>
</g>
<defs>
<clipPath id="clip0_65_1250">
<rect width="16.238" height="15.6" fill="white" transform="translate(0.178223 0.699951)"/>
</clipPath>
</defs>
</svg>
