<svg width="24" height="24" viewBox="0 0 24 24" fill="none" xmlns="http://www.w3.org/2000/svg">
<path d="M9.07689 2.41025C8.35894 2.20513 7.23074 2 6.41023 2C5.58973 2 4.46153 2.20513 3.74358 2.41025C3.02564 2.51282 2.51282 3.02564 2.41025 3.74358C2.20513 4.46153 2 5.58973 2 6.41023C2 7.23074 2.20513 8.35894 2.30769 9.07689C2.41025 9.79483 3.02564 10.3076 3.64102 10.4102C4.35896 10.5128 5.48716 10.7179 6.30767 10.7179C7.12818 10.7179 8.25638 10.5128 8.97432 10.4102C9.69227 10.3076 10.2051 9.69227 10.3077 9.07689C10.4102 8.35894 10.6153 7.23074 10.6153 6.41023C10.6153 5.58973 10.4102 4.46153 10.3077 3.74358C10.3077 3.02564 9.79483 2.51282 9.07689 2.41025Z" fill="#393D45"/>
<path d="M9.07684 13.6922C8.35889 13.5896 7.23069 13.3845 6.41018 13.3845C5.58968 13.3845 4.46148 13.5896 3.74353 13.6922C3.02559 13.7948 2.51277 14.4101 2.4102 15.0255C2.30764 15.7435 2.10251 16.8717 2.10251 17.6922C2.10251 18.5127 2.30764 19.6409 2.4102 20.3588C2.51277 21.0768 3.12815 21.5896 3.74353 21.6922C4.46148 21.7947 5.58968 21.9999 6.41018 21.9999C7.23069 21.9999 8.35889 21.7947 9.07684 21.6922C9.79478 21.5896 10.3076 20.9742 10.4102 20.3588C10.5127 19.6409 10.7179 18.5127 10.7179 17.6922C10.7179 16.8717 10.5127 15.7435 10.4102 15.0255C10.3076 14.3076 9.79478 13.7948 9.07684 13.6922Z" fill="#393D45"/>
<path d="M15.0255 10.4104C15.7435 10.513 16.8717 10.7181 17.6922 10.7181C18.5127 10.7181 19.6409 10.513 20.3588 10.4104C21.0768 10.3078 21.5896 9.69248 21.6921 9.0771C21.7947 8.35916 21.9998 7.23096 21.9998 6.41045C21.9998 5.58994 21.7947 4.46174 21.6921 3.74379C21.5896 3.02585 20.9742 2.51303 20.3588 2.41047C19.6409 2.3079 18.5127 2.10278 17.6922 2.10278C16.8717 2.10278 15.7435 2.3079 15.0255 2.41047C14.3076 2.51303 13.7947 3.12841 13.6922 3.74379C13.5896 4.46174 13.3845 5.58994 13.3845 6.41045C13.3845 7.23096 13.5896 8.35916 13.6922 9.0771C13.7947 9.79505 14.3076 10.3078 15.0255 10.4104Z" fill="#393D45"/>
<path d="M20.3588 13.6922C19.6409 13.5896 18.5127 13.3845 17.6922 13.3845C16.8717 13.3845 15.7435 13.5896 15.0255 13.6922C14.3076 13.7948 13.7947 14.4101 13.6922 15.0255C13.5896 15.7435 13.3845 16.8717 13.3845 17.6922C13.3845 18.5127 13.5896 19.6409 13.6922 20.3588C13.7947 21.0768 14.4101 21.5896 15.0255 21.6922C15.7435 21.7947 16.8717 21.9999 17.6922 21.9999C18.5127 21.9999 19.6409 21.7947 20.3588 21.6922C21.0768 21.5896 21.5896 20.9742 21.6921 20.3588C21.7947 19.6409 21.9998 18.5127 21.9998 17.6922C21.9998 16.8717 21.7947 15.7435 21.6921 15.0255C21.5896 14.3076 21.0768 13.7948 20.3588 13.6922Z" fill="#393D45"/>
</svg>
