<svg width="22" height="20" viewBox="0 0 22 20" fill="none" xmlns="http://www.w3.org/2000/svg">
<path d="M21.8676 10.5405L19.4958 8.39254V3.26867C19.4958 3.04787 19.3167 2.86925 19.0963 2.86925H17.0084C16.9024 2.86925 16.8005 2.91099 16.7253 2.9863C16.65 3.0616 16.6079 3.1634 16.6091 3.26987L16.6146 5.78293L11.4416 1.09739C11.2902 0.960508 11.0621 0.959309 10.9087 1.0939L0.135903 10.5826C-0.00174335 10.7034 -0.0395607 10.9012 0.0442478 11.0643C0.126966 11.2261 0.309514 11.3128 0.487376 11.2722L2.88186 10.7317V18.1162C2.87957 18.1806 2.87837 18.5136 3.11944 18.764C3.22636 18.8739 3.41784 19.0061 3.72637 19.0061C4.30202 19.0061 9.06952 19.0003 9.06952 19.0003C9.29065 19.0003 9.46851 18.8212 9.46894 18.6008L9.47516 14.186C9.47123 14.1346 9.48061 14.0039 9.53368 13.9457C9.56954 13.9074 9.64637 13.8985 9.70337 13.8985H11.9215C12.021 13.8985 12.1555 13.9145 12.2246 13.9862C12.3007 14.0643 12.2995 14.2 12.2983 14.221L12.2881 18.5867C12.2881 18.6924 12.3294 18.7942 12.4047 18.8698C12.4796 18.9447 12.5826 18.9876 12.6879 18.9876H17.9194C18.2752 18.9876 18.4936 18.8374 18.6129 18.7122C18.8918 18.422 18.8824 18.0242 18.8809 17.9968V10.6111L21.5086 11.2258C21.6877 11.2683 21.869 11.1833 21.9545 11.0222C22.0392 10.8611 22.0034 10.6633 21.8676 10.5405ZM17.4095 3.66843H18.6974V7.66867L17.4157 6.50789L17.4095 3.66843ZM18.5718 9.71789C18.454 9.68978 18.3277 9.71789 18.2329 9.79397C18.1377 9.8696 18.0815 9.98512 18.0815 10.1072V18.007C18.0815 18.0499 18.0659 18.129 18.0358 18.1599C18.0113 18.1841 17.9528 18.1872 17.9192 18.1872H13.0882L13.0968 14.2498C13.1003 14.2018 13.1206 13.7739 12.8125 13.4432C12.6647 13.2868 12.392 13.0996 11.9209 13.0996H9.70271C9.30449 13.0996 9.06734 13.2692 8.93863 13.4111C8.66443 13.715 8.66911 14.1221 8.67609 14.2365L8.66988 18.2016C7.51149 18.2028 4.19969 18.2071 3.72572 18.2071C3.71133 18.2071 3.70229 18.2063 3.69651 18.2063C3.69575 18.2063 3.69455 18.2063 3.69379 18.2063C3.68638 18.1903 3.68093 18.1599 3.68093 18.1326V10.2321C3.68093 10.1108 3.6248 9.99569 3.53042 9.91962C3.43528 9.84399 3.31082 9.81631 3.19301 9.84203L1.83801 10.1478L11.1684 1.92981L16.6161 6.86339V6.88715H16.6418L20.1849 10.0964L18.5718 9.71789Z" fill="#010002"/>
</svg>
