<svg width="21" height="22" viewBox="0 0 21 22" fill="none" xmlns="http://www.w3.org/2000/svg">
<path d="M16.2103 10.1172H4.44151C3.51298 10.1172 2.76025 10.8699 2.76025 11.7984V17.6829C2.76025 18.6114 3.51298 19.3641 4.44151 19.3641H16.2103C17.1389 19.3641 17.8916 18.6114 17.8916 17.6829V11.7984C17.8916 10.8699 17.1389 10.1172 16.2103 10.1172Z" stroke="#878484" stroke-width="2" stroke-linecap="round" stroke-linejoin="round"/>
<path d="M6.12256 10.1172V6.75467C6.12256 5.63992 6.56539 4.57083 7.35363 3.78259C8.14188 2.99434 9.21097 2.55151 10.3257 2.55151C11.4405 2.55151 12.5095 2.99434 13.2978 3.78259C14.086 4.57083 14.5289 5.63992 14.5289 6.75467V10.1172" stroke="#878484" stroke-width="2" stroke-linecap="round" stroke-linejoin="round"/>
</svg>
