<svg width="22" height="20" viewBox="0 0 22 20" fill="none" xmlns="http://www.w3.org/2000/svg">
<path d="M12.9637 19.2157H3.90113C3.42739 19.2157 2.99754 18.8388 2.99754 18.4083V1.53867C2.99754 1.1082 3.42744 0.784336 3.90113 0.784336H12.9637C13.202 0.784336 13.3951 0.608945 13.3951 0.392187C13.3951 0.175391 13.2019 0 12.9637 0H3.90113C2.95182 0 2.13477 0.675469 2.13477 1.53867V18.4083C2.13477 19.2715 2.95182 20 3.90113 20H12.9637C13.202 20 13.3951 19.8246 13.3951 19.6079C13.3951 19.3911 13.2019 19.2157 12.9637 19.2157Z" fill="black"/>
<path d="M19.7548 9.51507L15.8724 5.59351C15.7129 5.4323 15.4402 5.41964 15.2633 5.56441C15.0861 5.70917 15.0718 5.97066 15.2313 6.13148L18.4656 9.41179H8.64987C8.41165 9.41179 8.21851 9.58718 8.21851 9.80394C8.21851 10.0207 8.41165 10.1961 8.64987 10.1961H18.3928L15.2468 13.0428C15.0783 13.1961 15.0783 13.4375 15.2468 13.5907C15.3311 13.6673 15.4414 13.7023 15.5518 13.7023C15.6622 13.7023 15.7725 13.6624 15.8568 13.5858L19.7392 10.0555C19.9014 9.90808 19.9083 9.67015 19.7548 9.51507Z" fill="black"/>
</svg>
