<svg width="19" height="19" viewBox="0 0 19 19" fill="none" xmlns="http://www.w3.org/2000/svg">
<path d="M0 0.158325V18.8417H19V0.158325H0ZM18.3667 18.2083H0.633333V0.791659H18.3667V18.2083Z" fill="black"/>
<path d="M7.91676 4.90833H15.2001C15.3749 4.90833 15.5168 4.76678 15.5168 4.59166C15.5168 4.41654 15.3749 4.27499 15.2001 4.27499H7.91676C7.74196 4.27499 7.6001 4.41654 7.6001 4.59166C7.6001 4.76678 7.74196 4.90833 7.91676 4.90833Z" fill="black"/>
<path d="M7.91676 9.97501H15.2001C15.3749 9.97501 15.5168 9.83346 15.5168 9.65834C15.5168 9.48322 15.3749 9.34167 15.2001 9.34167H7.91676C7.74196 9.34167 7.6001 9.48322 7.6001 9.65834C7.6001 9.83346 7.74196 9.97501 7.91676 9.97501Z" fill="black"/>
<path d="M7.91676 15.0417H15.2001C15.3749 15.0417 15.5168 14.9001 15.5168 14.725C15.5168 14.5499 15.3749 14.4083 15.2001 14.4083H7.91676C7.74196 14.4083 7.6001 14.5499 7.6001 14.725C7.6001 14.9001 7.74196 15.0417 7.91676 15.0417Z" fill="black"/>
<path d="M6.33317 3.00833H3.1665V6.175H6.33317V3.00833ZM5.69984 5.54166H3.79984V3.64166H5.69984V5.54166Z" fill="black"/>
<path d="M6.33317 8.07498H3.1665V11.2416H6.33317V8.07498ZM5.69984 10.6083H3.79984V8.70832H5.69984V10.6083Z" fill="black"/>
<path d="M6.33317 13.1417H3.1665V16.3083H6.33317V13.1417ZM5.69984 15.675H3.79984V13.775H5.69984V15.675Z" fill="black"/>
</svg>
